# xmcd CD database file
#
# Track frame offsets:
#	150
#	11150
#	23700
#	34800
#	43200
#	55100
#	65625
#	78475
#	88100
#	100500
#	109325
#	117225
#	127950
#	138175
#
# Disc length: 2029 seconds
#
# Revision: 0
# Processed by: cddbd v1.5.1PL0 Copyright (c) Steve Scherf et al.
# Submitted via: CDex 1.51
#
DISCID=b807eb0e
DTITLE=Various Artist - Country Heroes Vol 1
DYEAR=1900
DGENRE=Country
TTITLE0=Patsy Cline - Stop Look And Listen
TTITLE1=George Jone - I Can't Escape From You
TTITLE2=Dolly Parton - Honky Tonky Angels
TTITLE3=Waylon Jennings - Abilene
TTITLE4=Kenny Roger - Elvira
TTITLE5=Faron Young - If You Ain't Loving
TTITLE6=Dolly Parton - Little Blossom
TTITLE7=Ned Miller - From A Jack To A King
TTITLE8=Willie Nelson - I Can't Find The Time
TTITLE9=Waylon Jennings - Love's Gonna Live Here
TTITLE10=George Jones - Jambalaya
TTITLE11=Kenny Rogers - Homemade Lies
TTITLE12=Willie Nelson - I Didn't Sleep A Wink
TTITLE13=George Jones - Cold Cold Heart
EXTD=
EXTT0=
EXTT1=
EXTT2=
EXTT3=
EXTT4=
EXTT5=
EXTT6=
EXTT7=
EXTT8=
EXTT9=
EXTT10=
EXTT11=
EXTT12=
EXTT13=
PLAYORDER=
